<mxfile host="app.diagrams.net" modified="2022-04-13T17:12:53.866Z" agent="5.0 (Macintosh; Intel Mac OS X 10_15_7) AppleWebKit/537.36 (KHTML, like Gecko) Chrome/100.0.4896.75 Safari/537.36" etag="D93c78Y8EeiG6W63UhIa" version="17.4.3" type="github">
  <diagram id="C5RBs43oDa-KdzZeNtuy" name="Page-1">
    <mxGraphModel dx="786" dy="1715" grid="1" gridSize="10" guides="1" tooltips="1" connect="1" arrows="1" fold="1" page="1" pageScale="1" pageWidth="827" pageHeight="1169" math="0" shadow="0">
      <root>
        <mxCell id="WIyWlLk6GJQsqaUBKTNV-0" />
        <mxCell id="WIyWlLk6GJQsqaUBKTNV-1" parent="WIyWlLk6GJQsqaUBKTNV-0" />
        <mxCell id="zkfFHV4jXpPFQw0GAbJ--0" value="Item" style="swimlane;fontStyle=2;align=center;verticalAlign=top;childLayout=stackLayout;horizontal=1;startSize=26;horizontalStack=0;resizeParent=1;resizeLast=0;collapsible=1;marginBottom=0;rounded=0;shadow=0;strokeWidth=1;" parent="WIyWlLk6GJQsqaUBKTNV-1" vertex="1">
          <mxGeometry x="40" y="-240" width="160" height="190" as="geometry">
            <mxRectangle x="230" y="140" width="160" height="26" as="alternateBounds" />
          </mxGeometry>
        </mxCell>
        <mxCell id="zkfFHV4jXpPFQw0GAbJ--1" value="name" style="text;align=left;verticalAlign=top;spacingLeft=4;spacingRight=4;overflow=hidden;rotatable=0;points=[[0,0.5],[1,0.5]];portConstraint=eastwest;" parent="zkfFHV4jXpPFQw0GAbJ--0" vertex="1">
          <mxGeometry y="26" width="160" height="26" as="geometry" />
        </mxCell>
        <mxCell id="zkfFHV4jXpPFQw0GAbJ--2" value="category" style="text;align=left;verticalAlign=top;spacingLeft=4;spacingRight=4;overflow=hidden;rotatable=0;points=[[0,0.5],[1,0.5]];portConstraint=eastwest;rounded=0;shadow=0;html=0;" parent="zkfFHV4jXpPFQw0GAbJ--0" vertex="1">
          <mxGeometry y="52" width="160" height="26" as="geometry" />
        </mxCell>
        <mxCell id="bVg5C6_QYMfXXjhbe2La-1" value="amount" style="text;align=left;verticalAlign=top;spacingLeft=4;spacingRight=4;overflow=hidden;rotatable=0;points=[[0,0.5],[1,0.5]];portConstraint=eastwest;" vertex="1" parent="zkfFHV4jXpPFQw0GAbJ--0">
          <mxGeometry y="78" width="160" height="26" as="geometry" />
        </mxCell>
        <mxCell id="zkfFHV4jXpPFQw0GAbJ--3" value="Price price" style="text;align=left;verticalAlign=top;spacingLeft=4;spacingRight=4;overflow=hidden;rotatable=0;points=[[0,0.5],[1,0.5]];portConstraint=eastwest;rounded=0;shadow=0;html=0;" parent="zkfFHV4jXpPFQw0GAbJ--0" vertex="1">
          <mxGeometry y="104" width="160" height="26" as="geometry" />
        </mxCell>
        <mxCell id="bVg5C6_QYMfXXjhbe2La-3" value="availableOnStock" style="text;align=left;verticalAlign=top;spacingLeft=4;spacingRight=4;overflow=hidden;rotatable=0;points=[[0,0.5],[1,0.5]];portConstraint=eastwest;" vertex="1" parent="zkfFHV4jXpPFQw0GAbJ--0">
          <mxGeometry y="130" width="160" height="26" as="geometry" />
        </mxCell>
        <mxCell id="zkfFHV4jXpPFQw0GAbJ--4" value="" style="line;html=1;strokeWidth=1;align=left;verticalAlign=middle;spacingTop=-1;spacingLeft=3;spacingRight=3;rotatable=0;labelPosition=right;points=[];portConstraint=eastwest;" parent="zkfFHV4jXpPFQw0GAbJ--0" vertex="1">
          <mxGeometry y="156" width="160" height="8" as="geometry" />
        </mxCell>
        <mxCell id="bVg5C6_QYMfXXjhbe2La-0" value="&lt;h1 style=&quot;font-size: 10px&quot;&gt;&lt;p&gt;&lt;span style=&quot;background-color: rgb(255 , 255 , 255)&quot;&gt;Бизнес-задача — нужно API для работы с товарами/продуктами на складах для операторов в CRM&lt;font face=&quot;system-ui, -apple-system, system-ui, Roboto, Apple Color Emoji, Helvetica Neue, sans-serif&quot; style=&quot;font-size: 10px&quot;&gt;&lt;br&gt;&lt;/font&gt;&lt;/span&gt;Я хочу псевдо-проект, который будет выводить количество товаров на складе и помогать с ними взаимодействовать&lt;font face=&quot;system-ui, -apple-system, system-ui, Roboto, Apple Color Emoji, Helvetica Neue, sans-serif&quot; style=&quot;font-size: 10px&quot;&gt;&lt;br&gt;&lt;/font&gt;Структура товара произвольная; обязательные поля:  категория товара, его название, цена и количество, доступное на складе. По ним нужно уметь фильтровать/сортировать. Через апи можно увидеть список товаров на складе (вида id, количество), какой товар есть на складе, сколько осталось конкретного товара, запросить карточку товара (полное его описание). Так же должны быть методы покупки (когда по запросу товар удаляется, важно проверить, что количества товара достаточно на этом складе) и методы отгрузки товара (когда товары загружаются на склад, заносятся в CRM)&lt;font face=&quot;system-ui, -apple-system, system-ui, Roboto, Apple Color Emoji, Helvetica Neue, sans-serif&quot; style=&quot;font-size: 10px&quot;&gt;&lt;br&gt;&lt;/font&gt;Фактически, сервис должен быть разбит на такие слои:&lt;br&gt;контроллеры (API)&lt;br&gt;сервисы (обработка данных)&lt;br&gt;репозитории (или любой другой data-слой, где ты планируешь хранить товары и склады)&lt;br&gt;объекты&lt;font face=&quot;system-ui, -apple-system, system-ui, Roboto, Apple Color Emoji, Helvetica Neue, sans-serif&quot; style=&quot;font-size: 10px&quot;&gt;&lt;br&gt;&lt;/font&gt;Выглядит не сильно много, но в каких-то вопросах можешь встать в тупик. Пиши мне сразу, не откладывай на потом, в будни дни я могу не реагировать на личные сообщения, потому что для этого отведено отдельное время, но вопросы по задачам — рабочие вопросы, поэтому буду отвечать по возможности сразу, чтобы это двигалось.&lt;br&gt;Важно, я не ожидаю, что ты сделаешь все и сразу и сам, цель этой задачки — чтобы я вместе с тобой прошел через этот путь создания сервиса&lt;font face=&quot;system-ui, -apple-system, system-ui, Roboto, Apple Color Emoji, Helvetica Neue, sans-serif&quot; style=&quot;font-size: 10px&quot;&gt;&lt;br&gt;&lt;/font&gt;Все, что я не описал конкретно — или спрашивай, или придумывай, это пока задача из моей головы, но очень приближенная к реальноным кейсам, фактически, базовый сервис так и выглядит архитектурно&lt;/p&gt;&lt;/h1&gt;" style="text;html=1;strokeColor=none;fillColor=none;spacing=5;spacingTop=-20;whiteSpace=wrap;overflow=hidden;rounded=0;align=left;" vertex="1" parent="WIyWlLk6GJQsqaUBKTNV-1">
          <mxGeometry x="414" y="-330" width="360" height="390" as="geometry" />
        </mxCell>
        <mxCell id="bVg5C6_QYMfXXjhbe2La-14" style="edgeStyle=orthogonalEdgeStyle;rounded=0;orthogonalLoop=1;jettySize=auto;html=1;exitX=0;exitY=0;exitDx=0;exitDy=0;entryX=1;entryY=0.5;entryDx=0;entryDy=0;fontSize=10;fontColor=#000000;" edge="1" parent="WIyWlLk6GJQsqaUBKTNV-1" source="bVg5C6_QYMfXXjhbe2La-4" target="zkfFHV4jXpPFQw0GAbJ--3">
          <mxGeometry relative="1" as="geometry" />
        </mxCell>
        <mxCell id="bVg5C6_QYMfXXjhbe2La-4" value="Price" style="swimlane;fontStyle=2;align=center;verticalAlign=top;childLayout=stackLayout;horizontal=1;startSize=26;horizontalStack=0;resizeParent=1;resizeLast=0;collapsible=1;marginBottom=0;rounded=0;shadow=0;strokeWidth=1;" vertex="1" parent="WIyWlLk6GJQsqaUBKTNV-1">
          <mxGeometry x="240" y="-100" width="160" height="110" as="geometry">
            <mxRectangle x="230" y="140" width="160" height="26" as="alternateBounds" />
          </mxGeometry>
        </mxCell>
        <mxCell id="bVg5C6_QYMfXXjhbe2La-5" value="value" style="text;align=left;verticalAlign=top;spacingLeft=4;spacingRight=4;overflow=hidden;rotatable=0;points=[[0,0.5],[1,0.5]];portConstraint=eastwest;" vertex="1" parent="bVg5C6_QYMfXXjhbe2La-4">
          <mxGeometry y="26" width="160" height="26" as="geometry" />
        </mxCell>
        <mxCell id="bVg5C6_QYMfXXjhbe2La-6" value="rate" style="text;align=left;verticalAlign=top;spacingLeft=4;spacingRight=4;overflow=hidden;rotatable=0;points=[[0,0.5],[1,0.5]];portConstraint=eastwest;rounded=0;shadow=0;html=0;" vertex="1" parent="bVg5C6_QYMfXXjhbe2La-4">
          <mxGeometry y="52" width="160" height="26" as="geometry" />
        </mxCell>
        <mxCell id="bVg5C6_QYMfXXjhbe2La-10" value="" style="line;html=1;strokeWidth=1;align=left;verticalAlign=middle;spacingTop=-1;spacingLeft=3;spacingRight=3;rotatable=0;labelPosition=right;points=[];portConstraint=eastwest;" vertex="1" parent="bVg5C6_QYMfXXjhbe2La-4">
          <mxGeometry y="78" width="160" height="8" as="geometry" />
        </mxCell>
      </root>
    </mxGraphModel>
  </diagram>
</mxfile>
